<svg width="48" height="49" viewBox="0 0 48 49" fill="none" xmlns="http://www.w3.org/2000/svg">
<g clip-path="url(#clip0_1_1092)">
<path fill-rule="evenodd" clip-rule="evenodd" d="M43.094 8.41549L24.719 0.786398C24.2587 0.595336 23.7413 0.595242 23.281 0.786398L4.90603 8.41549C4.20619 8.70612 3.75 9.38937 3.75 10.1471V19.4214C3.75 32.1913 11.4683 43.6782 23.2914 48.504C23.7456 48.6894 24.2543 48.6894 24.7086 48.504C36.5315 43.6783 44.25 32.1914 44.25 19.4214V10.1471C44.25 9.38937 43.7939 8.70612 43.094 8.41549ZM21.5936 26.2401L30.9502 16.4231C31.8003 15.5312 33.1786 15.5311 34.0288 16.4231C34.8789 17.3151 34.8788 18.7613 34.0287 19.6532L23.1329 31.0852C22.2826 31.9773 20.9043 31.977 20.0543 31.0852L13.9706 24.7021C13.1205 23.8101 13.1205 22.3639 13.9706 21.472C14.8208 20.5801 16.1991 20.58 17.0492 21.472L21.5936 26.2401Z" fill="#6B7CFF"/>
</g>
<defs>
<clipPath id="clip0_1_1092">
<rect width="48" height="48" fill="white" transform="translate(0 0.643066)"/>
</clipPath>
</defs>
</svg>
