<svg width="48" height="49" viewBox="0 0 48 49" fill="none" xmlns="http://www.w3.org/2000/svg">
<g clip-path="url(#clip0_1_1086)">
<path d="M1 23.5677H9.43254V47.1789H1V23.5677Z" fill="#6B7CFF"/>
<path d="M36.4168 47.1788H12.8057V22.2134L17.936 14.5179L19.3611 4.5388C19.4793 3.7365 19.8812 3.00316 20.4939 2.47186C21.1066 1.94056 21.8895 1.64651 22.7004 1.64307H22.9247C24.2662 1.64441 25.5523 2.17789 26.5009 3.12645C27.4494 4.075 27.9829 5.36113 27.9842 6.70259V16.8216H41.4763C43.2648 16.8239 44.9794 17.5353 46.244 18.8C47.5086 20.0646 48.2201 21.7792 48.2223 23.5677V35.3732C48.2188 38.5032 46.9738 41.5039 44.7606 43.7171C42.5474 45.9303 39.5467 47.1752 36.4168 47.1788Z" fill="#6B7CFF"/>
</g>
<defs>
<clipPath id="clip0_1_1086">
<rect width="48" height="48" fill="white" transform="translate(0 0.643066)"/>
</clipPath>
</defs>
</svg>
