<svg width="48" height="49" viewBox="0 0 48 49" fill="none" xmlns="http://www.w3.org/2000/svg">
<g clip-path="url(#clip0_1_1079)">
<path d="M24.0005 0.643066C13.881 0.643066 5.64746 8.87659 5.64746 18.9961V35.937C5.64746 38.2727 7.54736 40.1726 9.88269 40.1726C12.2184 40.1726 14.1183 38.2727 14.1183 35.937V21.8196C14.1183 19.4843 12.2184 17.5844 9.88269 17.5844C9.40735 17.5844 8.95764 17.6807 8.53027 17.8257C9.13269 9.80896 15.8336 3.46655 24.0005 3.46655C32.163 3.46655 38.8621 9.8031 39.47 17.8143C39.0452 17.6689 38.5929 17.5844 38.1183 17.5844C35.7826 17.5844 33.8827 19.4843 33.8827 21.8196V35.937C33.8827 38.2727 35.7826 40.1726 38.1183 40.1726C38.6156 40.1726 39.0862 40.0708 39.53 39.9126V41.5844C39.53 42.3633 38.8958 42.9961 38.1183 42.9961H27.9757C27.3909 41.3562 25.8385 40.1726 24.0005 40.1726C21.6652 40.1726 19.7653 42.0725 19.7653 44.4078C19.7653 46.7432 21.6652 48.6431 24.0005 48.6431C25.8385 48.6431 27.3909 47.4591 27.9757 45.8196H38.1183C40.4536 45.8196 42.3535 43.9197 42.3535 41.5844C42.3535 33.0927 42.3535 27.4969 42.3535 18.9961C42.3535 8.87659 34.12 0.643066 24.0005 0.643066V0.643066Z" fill="#6B7CFF"/>
<path d="M45.1768 20.6678V37.0887C46.8163 36.5043 48.0002 34.9519 48.0002 33.1135V24.6431C48.0002 22.8051 46.8163 21.2527 45.1768 20.6678Z" fill="#6B7CFF"/>
<path d="M0 24.6431V33.1135C0 34.9519 1.18396 36.5043 2.82349 37.0888V20.6679C1.18396 21.2527 0 22.8051 0 24.6431Z" fill="#6B7CFF"/>
</g>
<defs>
<clipPath id="clip0_1_1079">
<rect width="48" height="48" fill="white" transform="translate(0 0.643066)"/>
</clipPath>
</defs>
</svg>
